# xmcd CD database file
#
# Track frame offsets:
#	150
#	14582
#	33028
#	48179
#	65206
#	81180
#	93707
#	107882
#	118231
#	131582
#	143056
#	155124
#	167353
#	176655
#
# Disc length: 2571 seconds
#
# Revision: 0
# Processed by: cddbd v1.4PL0 Copyright (c) Steve Scherf et al.
# Submitted via: CDex 1.50beta9
#
DISCID=c20a090e
DTITLE=Cajun Playboys - Pure Cajun
DYEAR=1996
DGENRE=Country
TTITLE0=Lafayette Breakdown
TTITLE1=Bosco Stomp
TTITLE2=Big Texas
TTITLE3=Kaplan Waltz
TTITLE4=Jet AisAu Bal
TTITLE5=Madelaine
TTITLE6=Happy Anniversary
TTITLE7=Perrodin Two Step
TTITLE8=T'ai Petite Et T'ai Meon
TTITLE9=Pauvre Hobo
TTITLE10=Petite Ou La Grosse
TTITLE11=Port Arthur Blues
TTITLE12=Colinda
TTITLE13=Tolam Waltz
EXTD=YEAR: 1996
EXTT0=
EXTT1=
EXTT2=
EXTT3=
EXTT4=
EXTT5=
EXTT6=
EXTT7=
EXTT8=
EXTT9=
EXTT10=
EXTT11=
EXTT12=
EXTT13=
PLAYORDER=
